<svg width="42" height="38" viewBox="0 0 42 38" fill="none" xmlns="http://www.w3.org/2000/svg">
<path d="M15.5569 2.66667C14.1442 2.80642 13.1931 3.12059 12.4824 3.83234C11.2095 5.10742 11.2095 7.16034 11.2095 11.2673V15.6223C11.2095 19.7281 11.2095 21.7821 12.4824 23.0583C13.7553 24.3344 15.805 24.3333 19.9032 24.3333H22.0775C26.1757 24.3333 28.2254 24.3333 29.4983 23.0583C30.6542 21.8991 30.7615 20.1148 30.7712 16.7251" stroke="#E7F6FF" stroke-width="1.5" stroke-linecap="round" stroke-linejoin="round"/>
<path d="M19.9032 8.08334L20.9898 11.875C21.5964 13.0775 22.358 13.3917 24.2506 13.5C25.7553 13.4632 26.6285 13.2855 27.3739 12.6377C27.8819 12.1957 28.1116 11.5294 28.2232 10.8664L28.5958 8.62501M31.3129 6.45834V11.875M17.8178 5.84409C19.537 4.41734 21.0688 3.65143 24.2463 2.80859C24.6047 2.71396 24.9818 2.71582 25.3393 2.81401C28.1517 3.58751 29.6705 4.27434 31.705 5.80184C31.7917 5.86684 31.8177 5.98818 31.757 6.07809C31.0929 7.05526 29.6098 7.84718 25.972 9.25768C25.2143 9.54923 24.3745 9.54459 23.6201 9.24468C19.7461 7.70634 17.9651 6.88301 17.7484 6.02826C17.7414 5.99415 17.7442 5.95874 17.7564 5.92614C17.7687 5.89354 17.79 5.86509 17.8178 5.84409Z" stroke="#E7F6FF" stroke-width="1.5" stroke-linecap="round" stroke-linejoin="round"/>
<path d="M10.3665 33.6449H9.30398C9.27367 33.4706 9.2178 33.3163 9.13636 33.1818C9.05492 33.0455 8.9536 32.9299 8.83239 32.8352C8.71117 32.7405 8.57292 32.6695 8.41761 32.6222C8.2642 32.5729 8.09848 32.5483 7.92045 32.5483C7.60417 32.5483 7.32386 32.6278 7.07955 32.7869C6.83523 32.9441 6.64394 33.1752 6.50568 33.4801C6.36742 33.7831 6.2983 34.1534 6.2983 34.5909C6.2983 35.036 6.36742 35.411 6.50568 35.7159C6.64583 36.0189 6.83712 36.2481 7.07955 36.4034C7.32386 36.5568 7.60322 36.6335 7.91761 36.6335C8.09186 36.6335 8.25473 36.6108 8.40625 36.5653C8.55966 36.518 8.69697 36.4489 8.81818 36.358C8.94129 36.267 9.04451 36.1553 9.12784 36.0227C9.21307 35.8902 9.27178 35.7386 9.30398 35.5682L10.3665 35.5739C10.3267 35.8504 10.2405 36.1098 10.108 36.3523C9.97727 36.5947 9.80587 36.8087 9.59375 36.9943C9.38163 37.178 9.13352 37.322 8.84943 37.4261C8.56534 37.5284 8.25 37.5795 7.90341 37.5795C7.39205 37.5795 6.93561 37.4612 6.53409 37.2244C6.13258 36.9877 5.81629 36.6458 5.58523 36.1989C5.35417 35.7519 5.23864 35.2159 5.23864 34.5909C5.23864 33.964 5.35511 33.428 5.58807 32.983C5.82102 32.536 6.13826 32.1941 6.53977 31.9574C6.94129 31.7206 7.39583 31.6023 7.90341 31.6023C8.22727 31.6023 8.52841 31.6477 8.80682 31.7386C9.08523 31.8295 9.33333 31.9631 9.55114 32.1392C9.76894 32.3134 9.94792 32.5275 10.0881 32.7812C10.2301 33.0331 10.3229 33.321 10.3665 33.6449ZM13.1896 37.5852C12.7635 37.5852 12.3942 37.4915 12.0817 37.304C11.7692 37.1165 11.5268 36.8542 11.3544 36.517C11.1839 36.1799 11.0987 35.786 11.0987 35.3352C11.0987 34.8845 11.1839 34.4896 11.3544 34.1506C11.5268 33.8116 11.7692 33.5483 12.0817 33.3608C12.3942 33.1733 12.7635 33.0795 13.1896 33.0795C13.6158 33.0795 13.9851 33.1733 14.2976 33.3608C14.6101 33.5483 14.8516 33.8116 15.022 34.1506C15.1944 34.4896 15.2805 34.8845 15.2805 35.3352C15.2805 35.786 15.1944 36.1799 15.022 36.517C14.8516 36.8542 14.6101 37.1165 14.2976 37.304C13.9851 37.4915 13.6158 37.5852 13.1896 37.5852ZM13.1953 36.7614C13.4264 36.7614 13.6196 36.6979 13.7749 36.571C13.9302 36.4422 14.0457 36.2699 14.1214 36.054C14.1991 35.8381 14.2379 35.5975 14.2379 35.3324C14.2379 35.0653 14.1991 34.8239 14.1214 34.608C14.0457 34.3902 13.9302 34.2169 13.7749 34.0881C13.6196 33.9593 13.4264 33.8949 13.1953 33.8949C12.9586 33.8949 12.7616 33.9593 12.6044 34.0881C12.4491 34.2169 12.3326 34.3902 12.255 34.608C12.1792 34.8239 12.1413 35.0653 12.1413 35.3324C12.1413 35.5975 12.1792 35.8381 12.255 36.054C12.3326 36.2699 12.4491 36.4422 12.6044 36.571C12.7616 36.6979 12.9586 36.7614 13.1953 36.7614ZM18.9347 35.6648V33.1364H19.9631V37.5H18.9659V36.7244H18.9205C18.822 36.9687 18.66 37.1686 18.4347 37.3239C18.2112 37.4792 17.9356 37.5568 17.608 37.5568C17.322 37.5568 17.0691 37.4934 16.8494 37.3665C16.6316 37.2377 16.4612 37.0511 16.3381 36.8068C16.215 36.5606 16.1534 36.2633 16.1534 35.9148V33.1364H17.1818V35.7557C17.1818 36.0322 17.2576 36.2519 17.4091 36.4148C17.5606 36.5777 17.7595 36.6591 18.0057 36.6591C18.1572 36.6591 18.304 36.6222 18.446 36.5483C18.5881 36.4744 18.7045 36.3646 18.7955 36.2188C18.8883 36.071 18.9347 35.8864 18.9347 35.6648ZM21.0206 37.5V33.1364H22.0178V33.8636H22.0632C22.1428 33.6117 22.2791 33.4176 22.4723 33.2812C22.6674 33.143 22.8899 33.0739 23.1399 33.0739C23.1967 33.0739 23.2602 33.0767 23.3303 33.0824C23.4022 33.0862 23.4619 33.0928 23.5092 33.1023V34.0483C23.4657 34.0331 23.3965 34.0199 23.3018 34.0085C23.209 33.9953 23.1191 33.9886 23.032 33.9886C22.8445 33.9886 22.6759 34.0294 22.5263 34.1108C22.3786 34.1903 22.2621 34.3011 22.1768 34.4432C22.0916 34.5852 22.049 34.7491 22.049 34.9347V37.5H21.0206ZM27.6413 34.2898L26.7038 34.392C26.6773 34.2973 26.6309 34.2083 26.5646 34.125C26.5002 34.0417 26.4131 33.9744 26.3033 33.9233C26.1934 33.8722 26.0589 33.8466 25.8999 33.8466C25.6858 33.8466 25.5059 33.893 25.3601 33.9858C25.2161 34.0786 25.1451 34.1989 25.147 34.3466C25.1451 34.4735 25.1915 34.5767 25.2862 34.6562C25.3828 34.7358 25.5419 34.8011 25.7635 34.8523L26.5078 35.0114C26.9207 35.1004 27.2275 35.2415 27.4283 35.4347C27.6309 35.6278 27.7332 35.8807 27.7351 36.1932C27.7332 36.4678 27.6527 36.7102 27.4936 36.9205C27.3364 37.1288 27.1177 37.2917 26.8374 37.4091C26.5571 37.5265 26.2351 37.5852 25.8714 37.5852C25.3374 37.5852 24.9074 37.4735 24.5817 37.25C24.2559 37.0246 24.0618 36.7112 23.9993 36.3097L25.0021 36.2131C25.0476 36.41 25.1442 36.5587 25.2919 36.6591C25.4396 36.7595 25.6319 36.8097 25.8686 36.8097C26.1129 36.8097 26.3089 36.7595 26.4567 36.6591C26.6063 36.5587 26.6811 36.4347 26.6811 36.2869C26.6811 36.1619 26.6328 36.0587 26.5362 35.9773C26.4415 35.8958 26.2938 35.8333 26.093 35.7898L25.3487 35.6335C24.9302 35.5464 24.6205 35.3996 24.4197 35.1932C24.219 34.9848 24.1196 34.7216 24.1214 34.4034C24.1196 34.1345 24.1925 33.9015 24.3402 33.7045C24.4898 33.5057 24.6972 33.3523 24.9624 33.2443C25.2294 33.1345 25.5372 33.0795 25.8857 33.0795C26.397 33.0795 26.7995 33.1884 27.093 33.4062C27.3885 33.6241 27.5713 33.9186 27.6413 34.2898ZM30.5149 37.5852C30.0774 37.5852 29.6996 37.4943 29.3814 37.3125C29.0651 37.1288 28.8217 36.8693 28.6513 36.5341C28.4808 36.197 28.3956 35.8002 28.3956 35.3438C28.3956 34.8949 28.4808 34.5009 28.6513 34.1619C28.8236 33.821 29.0642 33.5559 29.3729 33.3665C29.6816 33.1752 30.0443 33.0795 30.4609 33.0795C30.7299 33.0795 30.9837 33.1231 31.2223 33.2102C31.4628 33.2955 31.675 33.428 31.8587 33.608C32.0443 33.7879 32.1901 34.017 32.2962 34.2955C32.4022 34.572 32.4553 34.9015 32.4553 35.2841V35.5994H28.8786V34.9062H31.4695C31.4676 34.7093 31.425 34.5341 31.3416 34.3807C31.2583 34.2254 31.1418 34.1032 30.9922 34.0142C30.8445 33.9252 30.6721 33.8807 30.4751 33.8807C30.2649 33.8807 30.0803 33.9318 29.9212 34.0341C29.7621 34.1345 29.638 34.267 29.549 34.4318C29.4619 34.5947 29.4174 34.7737 29.4155 34.9688V35.5739C29.4155 35.8277 29.4619 36.0455 29.5547 36.2273C29.6475 36.4072 29.7772 36.5455 29.9439 36.642C30.1106 36.7367 30.3056 36.7841 30.5291 36.7841C30.6787 36.7841 30.8142 36.7633 30.9354 36.7216C31.0566 36.678 31.1617 36.6146 31.2507 36.5312C31.3397 36.4479 31.407 36.3447 31.4524 36.2216L32.4126 36.3295C32.352 36.5833 32.2365 36.8049 32.0661 36.9943C31.8975 37.1818 31.6816 37.3277 31.4183 37.4318C31.1551 37.5341 30.8539 37.5852 30.5149 37.5852ZM36.7741 34.2898L35.8366 34.392C35.8101 34.2973 35.7637 34.2083 35.6974 34.125C35.633 34.0417 35.5459 33.9744 35.4361 33.9233C35.3262 33.8722 35.1918 33.8466 35.0327 33.8466C34.8187 33.8466 34.6387 33.893 34.4929 33.9858C34.349 34.0786 34.2779 34.1989 34.2798 34.3466C34.2779 34.4735 34.3243 34.5767 34.419 34.6562C34.5156 34.7358 34.6747 34.8011 34.8963 34.8523L35.6406 35.0114C36.0535 35.1004 36.3603 35.2415 36.5611 35.4347C36.7637 35.6278 36.866 35.8807 36.8679 36.1932C36.866 36.4678 36.7855 36.7102 36.6264 36.9205C36.4692 37.1288 36.2505 37.2917 35.9702 37.4091C35.6899 37.5265 35.3679 37.5852 35.0043 37.5852C34.4702 37.5852 34.0402 37.4735 33.7145 37.25C33.3887 37.0246 33.1946 36.7112 33.1321 36.3097L34.1349 36.2131C34.1804 36.41 34.277 36.5587 34.4247 36.6591C34.5724 36.7595 34.7647 36.8097 35.0014 36.8097C35.2457 36.8097 35.4418 36.7595 35.5895 36.6591C35.7391 36.5587 35.8139 36.4347 35.8139 36.2869C35.8139 36.1619 35.7656 36.0587 35.669 35.9773C35.5743 35.8958 35.4266 35.8333 35.2259 35.7898L34.4815 35.6335C34.063 35.5464 33.7533 35.3996 33.5526 35.1932C33.3518 34.9848 33.2524 34.7216 33.2543 34.4034C33.2524 34.1345 33.3253 33.9015 33.473 33.7045C33.6226 33.5057 33.83 33.3523 34.0952 33.2443C34.3622 33.1345 34.67 33.0795 35.0185 33.0795C35.5298 33.0795 35.9323 33.1884 36.2259 33.4062C36.5213 33.6241 36.7041 33.9186 36.7741 34.2898Z" fill="#E7F6FF"/>
</svg>
