<svg width="38" height="42" viewBox="0 0 38 42" fill="none" xmlns="http://www.w3.org/2000/svg">
<path d="M14.2499 19.75L22.4166 17.4167L24.7499 9.25L16.5833 11.5833L14.2499 19.75ZM19.4999 16.25C19.0138 16.25 18.6008 16.0801 18.2609 15.7402C17.921 15.4003 17.7507 14.9869 17.7499 14.5C17.7491 14.0131 17.9195 13.6001 18.2609 13.261C18.6024 12.9219 19.0154 12.7516 19.4999 12.75C19.9845 12.7484 20.3979 12.9188 20.7401 13.261C21.0823 13.6032 21.2523 14.0162 21.2499 14.5C21.2476 14.9838 21.0776 15.3972 20.7401 15.7402C20.4025 16.0832 19.9891 16.2531 19.4999 16.25ZM19.4999 26.1667C17.886 26.1667 16.3694 25.8602 14.9499 25.2473C13.5305 24.6344 12.2958 23.8034 11.2458 22.7542C10.1958 21.7049 9.3647 20.4702 8.75259 19.05C8.14048 17.6298 7.83403 16.1131 7.83325 14.5C7.83248 12.8869 8.13892 11.3702 8.75259 9.95C9.36625 8.52977 10.1973 7.29505 11.2458 6.24583C12.2942 5.19661 13.5289 4.36555 14.9499 3.75266C16.3709 3.13977 17.8876 2.83333 19.4999 2.83333C21.1123 2.83333 22.6289 3.13977 24.0499 3.75266C25.4709 4.36555 26.7056 5.19661 27.7541 6.24583C28.8025 7.29505 29.634 8.52977 30.2484 9.95C30.8629 11.3702 31.1689 12.8869 31.1666 14.5C31.1643 16.1131 30.8578 17.6298 30.2473 19.05C29.6367 20.4702 28.8056 21.7049 27.7541 22.7542C26.7025 23.8034 25.4678 24.6348 24.0499 25.2485C22.632 25.8622 21.1154 26.1682 19.4999 26.1667ZM19.4999 23.8333C22.086 23.8333 24.2883 22.9245 26.1068 21.1068C27.9252 19.2892 28.834 17.0869 28.8333 14.5C28.8325 11.9131 27.9236 9.71083 26.1068 7.89316C24.2899 6.0755 22.0876 5.16666 19.4999 5.16666C16.9123 5.16666 14.71 6.07588 12.8931 7.89433C11.0762 9.71277 10.1674 11.9147 10.1666 14.5C10.1658 17.0853 11.075 19.2876 12.8943 21.1068C14.7135 22.9261 16.9154 23.8349 19.4999 23.8333Z" fill="#E7F6FF"/>
<path d="M5.05043 39.5V33.6818H8.83452V34.5653H6.1044V36.1449H8.63849V37.0284H6.1044V38.6165H8.85724V39.5H5.05043ZM10.7053 35.1364L11.5859 36.7472L12.4808 35.1364H13.5689L12.2536 37.3182L13.5916 39.5H12.5092L11.5859 37.929L10.6712 39.5H9.58026L10.9098 37.3182L9.61435 35.1364H10.7053ZM14.3643 41.1364V35.1364H15.3757V35.858H15.4354C15.4884 35.7519 15.5632 35.6392 15.6598 35.5199C15.7564 35.3987 15.8871 35.2955 16.0518 35.2102C16.2166 35.1231 16.4268 35.0795 16.6825 35.0795C17.0196 35.0795 17.3236 35.1657 17.5945 35.3381C17.8672 35.5085 18.0831 35.7614 18.2422 36.0966C18.4032 36.4299 18.4837 36.839 18.4837 37.3239C18.4837 37.803 18.4051 38.2102 18.2479 38.5455C18.0907 38.8807 17.8767 39.1364 17.6058 39.3125C17.335 39.4886 17.0282 39.5767 16.6854 39.5767C16.4354 39.5767 16.228 39.535 16.0632 39.4517C15.8984 39.3684 15.7659 39.268 15.6655 39.1506C15.567 39.0312 15.4903 38.9186 15.4354 38.8125H15.3928V41.1364H14.3643ZM15.3729 37.3182C15.3729 37.6004 15.4126 37.8475 15.4922 38.0597C15.5736 38.2718 15.6901 38.4375 15.8416 38.5568C15.995 38.6742 16.1806 38.733 16.3984 38.733C16.6257 38.733 16.8161 38.6723 16.9695 38.5511C17.1229 38.428 17.2384 38.2604 17.3161 38.0483C17.3956 37.8343 17.4354 37.5909 17.4354 37.3182C17.4354 37.0473 17.3965 36.8068 17.3189 36.5966C17.2412 36.3864 17.1257 36.2216 16.9723 36.1023C16.8189 35.983 16.6276 35.9233 16.3984 35.9233C16.1787 35.9233 15.9922 35.9811 15.8388 36.0966C15.6854 36.2121 15.5689 36.3741 15.4893 36.5824C15.4117 36.7907 15.3729 37.036 15.3729 37.3182ZM20.3928 33.6818V39.5H19.3643V33.6818H20.3928ZM23.3537 39.5852C22.9276 39.5852 22.5582 39.4915 22.2457 39.304C21.9332 39.1165 21.6908 38.8542 21.5185 38.517C21.348 38.1799 21.2628 37.786 21.2628 37.3352C21.2628 36.8845 21.348 36.4896 21.5185 36.1506C21.6908 35.8116 21.9332 35.5483 22.2457 35.3608C22.5582 35.1733 22.9276 35.0795 23.3537 35.0795C23.7798 35.0795 24.1491 35.1733 24.4616 35.3608C24.7741 35.5483 25.0156 35.8116 25.1861 36.1506C25.3584 36.4896 25.4446 36.8845 25.4446 37.3352C25.4446 37.786 25.3584 38.1799 25.1861 38.517C25.0156 38.8542 24.7741 39.1165 24.4616 39.304C24.1491 39.4915 23.7798 39.5852 23.3537 39.5852ZM23.3594 38.7614C23.5904 38.7614 23.7836 38.6979 23.9389 38.571C24.0942 38.4422 24.2098 38.2699 24.2855 38.054C24.3632 37.8381 24.402 37.5975 24.402 37.3324C24.402 37.0653 24.3632 36.8239 24.2855 36.608C24.2098 36.3902 24.0942 36.2169 23.9389 36.0881C23.7836 35.9593 23.5904 35.8949 23.3594 35.8949C23.1226 35.8949 22.9257 35.9593 22.7685 36.0881C22.6132 36.2169 22.4967 36.3902 22.419 36.608C22.3433 36.8239 22.3054 37.0653 22.3054 37.3324C22.3054 37.5975 22.3433 37.8381 22.419 38.054C22.4967 38.2699 22.6132 38.4422 22.7685 38.571C22.9257 38.6979 23.1226 38.7614 23.3594 38.7614ZM26.3175 39.5V35.1364H27.3146V35.8636H27.3601C27.4396 35.6117 27.576 35.4176 27.7692 35.2812C27.9643 35.143 28.1868 35.0739 28.4368 35.0739C28.4936 35.0739 28.5571 35.0767 28.6271 35.0824C28.6991 35.0862 28.7588 35.0928 28.8061 35.1023V36.0483C28.7625 36.0331 28.6934 36.0199 28.5987 36.0085C28.5059 35.9953 28.416 35.9886 28.3288 35.9886C28.1413 35.9886 27.9728 36.0294 27.8232 36.1108C27.6754 36.1903 27.5589 36.3011 27.4737 36.4432C27.3885 36.5852 27.3459 36.7491 27.3459 36.9347V39.5H26.3175ZM31.2415 39.5852C30.804 39.5852 30.4261 39.4943 30.108 39.3125C29.7917 39.1288 29.5483 38.8693 29.3778 38.5341C29.2074 38.197 29.1222 37.8002 29.1222 37.3438C29.1222 36.8949 29.2074 36.5009 29.3778 36.1619C29.5502 35.821 29.7907 35.5559 30.0994 35.3665C30.4081 35.1752 30.7708 35.0795 31.1875 35.0795C31.4564 35.0795 31.7102 35.1231 31.9489 35.2102C32.1894 35.2955 32.4015 35.428 32.5852 35.608C32.7708 35.7879 32.9167 36.017 33.0227 36.2955C33.1288 36.572 33.1818 36.9015 33.1818 37.2841V37.5994H29.6051V36.9062H32.196C32.1941 36.7093 32.1515 36.5341 32.0682 36.3807C31.9848 36.2254 31.8684 36.1032 31.7188 36.0142C31.571 35.9252 31.3987 35.8807 31.2017 35.8807C30.9915 35.8807 30.8068 35.9318 30.6477 36.0341C30.4886 36.1345 30.3646 36.267 30.2756 36.4318C30.1884 36.5947 30.1439 36.7737 30.142 36.9688V37.5739C30.142 37.8277 30.1884 38.0455 30.2812 38.2273C30.3741 38.4072 30.5038 38.5455 30.6705 38.642C30.8371 38.7367 31.0322 38.7841 31.2557 38.7841C31.4053 38.7841 31.5407 38.7633 31.6619 38.7216C31.7831 38.678 31.8883 38.6146 31.9773 38.5312C32.0663 38.4479 32.1335 38.3447 32.179 38.2216L33.1392 38.3295C33.0786 38.5833 32.9631 38.8049 32.7926 38.9943C32.6241 39.1818 32.4081 39.3277 32.1449 39.4318C31.8816 39.5341 31.5805 39.5852 31.2415 39.5852Z" fill="#E7F6FF"/>
</svg>
