<svg width="35" height="43" viewBox="0 0 35 43" fill="none" xmlns="http://www.w3.org/2000/svg">
<path d="M19.2052 4.0596C18.7372 3.63908 18.1302 3.40645 17.5009 3.40645C16.8717 3.40645 16.2647 3.63908 15.7967 4.0596L6.4467 12.461C6.18055 12.6999 5.96763 12.9921 5.82178 13.3187C5.67592 13.6453 5.60039 13.9988 5.6001 14.3565V26.35C5.6001 27.0263 5.86876 27.6749 6.34698 28.1531C6.82519 28.6313 7.4738 28.9 8.1501 28.9H11.5501C12.2264 28.9 12.875 28.6313 13.3532 28.1531C13.8314 27.6749 14.1001 27.0263 14.1001 26.35V19.55C14.1001 19.3246 14.1896 19.1084 14.3491 18.949C14.5085 18.7896 14.7247 18.7 14.9501 18.7H20.0501C20.2755 18.7 20.4917 18.7896 20.6511 18.949C20.8105 19.1084 20.9001 19.3246 20.9001 19.55V26.35C20.9001 27.0263 21.1688 27.6749 21.647 28.1531C22.1252 28.6313 22.7738 28.9 23.4501 28.9H26.8501C27.5264 28.9 28.175 28.6313 28.6532 28.1531C29.1314 27.6749 29.4001 27.0263 29.4001 26.35V14.3565C29.4 13.999 29.3248 13.6455 29.1792 13.3189C29.0336 12.9924 28.821 12.7001 28.5552 12.461L19.2052 4.0596Z" fill="#DF723A"/>
<path d="M6.20277 42V36.1818H7.25675V38.6449H9.95277V36.1818H11.0096V42H9.95277V39.5284H7.25675V42H6.20277ZM14.0138 42.0852C13.5877 42.0852 13.2184 41.9915 12.9059 41.804C12.5934 41.6165 12.351 41.3542 12.1786 41.017C12.0082 40.6799 11.9229 40.286 11.9229 39.8352C11.9229 39.3845 12.0082 38.9896 12.1786 38.6506C12.351 38.3116 12.5934 38.0483 12.9059 37.8608C13.2184 37.6733 13.5877 37.5795 14.0138 37.5795C14.44 37.5795 14.8093 37.6733 15.1218 37.8608C15.4343 38.0483 15.6758 38.3116 15.8462 38.6506C16.0186 38.9896 16.1048 39.3845 16.1048 39.8352C16.1048 40.286 16.0186 40.6799 15.8462 41.017C15.6758 41.3542 15.4343 41.6165 15.1218 41.804C14.8093 41.9915 14.44 42.0852 14.0138 42.0852ZM14.0195 41.2614C14.2506 41.2614 14.4438 41.1979 14.5991 41.071C14.7544 40.9422 14.8699 40.7699 14.9457 40.554C15.0233 40.3381 15.0621 40.0975 15.0621 39.8324C15.0621 39.5653 15.0233 39.3239 14.9457 39.108C14.8699 38.8902 14.7544 38.7169 14.5991 38.5881C14.4438 38.4593 14.2506 38.3949 14.0195 38.3949C13.7828 38.3949 13.5858 38.4593 13.4286 38.5881C13.2733 38.7169 13.1568 38.8902 13.0792 39.108C13.0034 39.3239 12.9656 39.5653 12.9656 39.8324C12.9656 40.0975 13.0034 40.3381 13.0792 40.554C13.1568 40.7699 13.2733 40.9422 13.4286 41.071C13.5858 41.1979 13.7828 41.2614 14.0195 41.2614ZM16.9776 42V37.6364H17.9606V38.3778H18.0117C18.1026 38.1278 18.2532 37.9328 18.4634 37.7926C18.6737 37.6506 18.9246 37.5795 19.2163 37.5795C19.5117 37.5795 19.7608 37.6515 19.9634 37.7955C20.168 37.9375 20.3119 38.1316 20.3952 38.3778H20.4407C20.5373 38.1354 20.7002 37.9422 20.9293 37.7983C21.1604 37.6525 21.4341 37.5795 21.7504 37.5795C22.1519 37.5795 22.4795 37.7064 22.7333 37.9602C22.9871 38.214 23.114 38.5843 23.114 39.071V42H22.0827V39.2301C22.0827 38.9593 22.0108 38.7614 21.8668 38.6364C21.7229 38.5095 21.5468 38.446 21.3384 38.446C21.0903 38.446 20.8962 38.5237 20.756 38.679C20.6178 38.8324 20.5487 39.0322 20.5487 39.2784V42H19.5401V39.1875C19.5401 38.9621 19.4719 38.7822 19.3356 38.6477C19.2011 38.5133 19.025 38.446 18.8072 38.446C18.6594 38.446 18.525 38.4839 18.4038 38.5597C18.2826 38.6335 18.186 38.7386 18.114 38.875C18.042 39.0095 18.006 39.1667 18.006 39.3466V42H16.9776ZM26.0891 42.0852C25.6516 42.0852 25.2738 41.9943 24.9556 41.8125C24.6393 41.6288 24.396 41.3693 24.2255 41.0341C24.055 40.697 23.9698 40.3002 23.9698 39.8438C23.9698 39.3949 24.055 39.0009 24.2255 38.6619C24.3978 38.321 24.6384 38.0559 24.9471 37.8665C25.2558 37.6752 25.6185 37.5795 26.0352 37.5795C26.3041 37.5795 26.5579 37.6231 26.7965 37.7102C27.0371 37.7955 27.2492 37.928 27.4329 38.108C27.6185 38.2879 27.7643 38.517 27.8704 38.7955C27.9764 39.072 28.0295 39.4015 28.0295 39.7841V40.0994H24.4528V39.4062H27.0437C27.0418 39.2093 26.9992 39.0341 26.9158 38.8807C26.8325 38.7254 26.716 38.6032 26.5664 38.5142C26.4187 38.4252 26.2463 38.3807 26.0494 38.3807C25.8391 38.3807 25.6545 38.4318 25.4954 38.5341C25.3363 38.6345 25.2122 38.767 25.1232 38.9318C25.0361 39.0947 24.9916 39.2737 24.9897 39.4688V40.0739C24.9897 40.3277 25.0361 40.5455 25.1289 40.7273C25.2217 40.9072 25.3514 41.0455 25.5181 41.142C25.6848 41.2367 25.8799 41.2841 26.1033 41.2841C26.253 41.2841 26.3884 41.2633 26.5096 41.2216C26.6308 41.178 26.7359 41.1146 26.8249 41.0312C26.9139 40.9479 26.9812 40.8447 27.0266 40.7216L27.9869 40.8295C27.9263 41.0833 27.8107 41.3049 27.6403 41.4943C27.4717 41.6818 27.2558 41.8277 26.9925 41.9318C26.7293 42.0341 26.4281 42.0852 26.0891 42.0852Z" fill="#E7F6FF"/>
</svg>
