<svg width="42" height="42" viewBox="0 0 42 42" fill="none" xmlns="http://www.w3.org/2000/svg">
<path d="M17.7537 8C17.7537 7.00644 18.1484 6.05356 18.851 5.351C19.5536 4.64845 20.5064 4.25375 21.5 4.25375C22.4936 4.25375 23.4464 4.64845 24.149 5.351C24.8516 6.05356 25.2463 7.00644 25.2463 8C25.2463 8.99357 24.8516 9.94644 24.149 10.649C23.4464 11.3516 22.4936 11.7463 21.5 11.7463C20.5064 11.7463 19.5536 11.3516 18.851 10.649C18.1484 9.94644 17.7537 8.99357 17.7537 8ZM21.5 6.12875C21.2543 6.12875 21.0109 6.17715 20.7839 6.27119C20.5569 6.36523 20.3506 6.50307 20.1768 6.67683C20.0031 6.85059 19.8652 7.05688 19.7712 7.28391C19.6772 7.51094 19.6287 7.75427 19.6287 8C19.6287 8.24574 19.6772 8.48907 19.7712 8.7161C19.8652 8.94313 20.0031 9.14942 20.1768 9.32318C20.3506 9.49694 20.5569 9.63477 20.7839 9.72881C21.0109 9.82285 21.2543 9.87125 21.5 9.87125C21.9963 9.87125 22.4722 9.6741 22.8232 9.32318C23.1741 8.97225 23.3713 8.49629 23.3713 8C23.3713 7.50372 23.1741 7.02776 22.8232 6.67683C22.4722 6.3259 21.9963 6.12875 21.5 6.12875ZM27.125 8.9375C27.125 8.56816 27.1977 8.20243 27.3391 7.86121C27.4804 7.51998 27.6876 7.20993 27.9488 6.94877C28.2099 6.6876 28.52 6.48043 28.8612 6.33909C29.2024 6.19775 29.5682 6.125 29.9375 6.125C30.3068 6.125 30.6726 6.19775 31.0138 6.33909C31.355 6.48043 31.6651 6.6876 31.9262 6.94877C32.1874 7.20993 32.3946 7.51998 32.5359 7.86121C32.6773 8.20243 32.75 8.56816 32.75 8.9375C32.75 9.68342 32.4537 10.3988 31.9262 10.9262C31.3988 11.4537 30.6834 11.75 29.9375 11.75C29.1916 11.75 28.4762 11.4537 27.9488 10.9262C27.4213 10.3988 27.125 9.68342 27.125 8.9375ZM29.9375 8C29.6889 8 29.4504 8.09878 29.2746 8.27459C29.0988 8.45041 29 8.68886 29 8.9375C29 9.18614 29.0988 9.4246 29.2746 9.60042C29.4504 9.77623 29.6889 9.875 29.9375 9.875C30.1861 9.875 30.4246 9.77623 30.6004 9.60042C30.7762 9.4246 30.875 9.18614 30.875 8.9375C30.875 8.68886 30.7762 8.45041 30.6004 8.27459C30.4246 8.09878 30.1861 8 29.9375 8ZM13.0625 6.125C12.3166 6.125 11.6012 6.42132 11.0738 6.94877C10.5463 7.47621 10.25 8.19158 10.25 8.9375C10.25 9.68342 10.5463 10.3988 11.0738 10.9262C11.6012 11.4537 12.3166 11.75 13.0625 11.75C13.8084 11.75 14.5238 11.4537 15.0512 10.9262C15.5787 10.3988 15.875 9.68342 15.875 8.9375C15.875 8.19158 15.5787 7.47621 15.0512 6.94877C14.5238 6.42132 13.8084 6.125 13.0625 6.125ZM12.125 8.9375C12.125 8.68886 12.2238 8.45041 12.3996 8.27459C12.5754 8.09878 12.8139 8 13.0625 8C13.3111 8 13.5496 8.09878 13.7254 8.27459C13.9012 8.45041 14 8.68886 14 8.9375C14 9.18614 13.9012 9.4246 13.7254 9.60042C13.5496 9.77623 13.3111 9.875 13.0625 9.875C12.8139 9.875 12.5754 9.77623 12.3996 9.60042C12.2238 9.4246 12.125 9.18614 12.125 8.9375ZM14.5025 13.625C14.1733 14.1951 14 14.8417 14 15.5H10.25V20.1875C10.2498 20.6539 10.3657 21.113 10.5871 21.5235C10.8084 21.934 11.1284 22.283 11.5182 22.539C11.908 22.7951 12.3554 22.9502 12.82 22.9904C13.2847 23.0307 13.752 22.9547 14.18 22.7694C14.3188 23.39 14.5363 23.9825 14.8175 24.5356C14.1059 24.823 13.3346 24.9312 12.5714 24.8508C11.8081 24.7704 11.0763 24.5038 10.4402 24.0744C9.80408 23.6451 9.2831 23.0662 8.92301 22.3884C8.56292 21.7107 8.37474 20.955 8.375 20.1875V15.5C8.375 15.0027 8.57254 14.5258 8.92417 14.1742C9.27581 13.8225 9.75272 13.625 10.25 13.625H14.5025ZM28.1825 24.5356C28.8941 24.823 29.6654 24.9312 30.4286 24.8508C31.1919 24.7704 31.9237 24.5038 32.5598 24.0744C33.1959 23.6451 33.7169 23.0662 34.077 22.3884C34.4371 21.7107 34.6253 20.955 34.625 20.1875V15.5C34.625 15.0027 34.4275 14.5258 34.0758 14.1742C33.7242 13.8225 33.2473 13.625 32.75 13.625H28.4975C28.8162 14.1763 29 14.8156 29 15.5H32.75V20.1875C32.7502 20.6539 32.6343 21.113 32.4129 21.5235C32.1916 21.934 31.8716 22.283 31.4818 22.539C31.092 22.7951 30.6446 22.9502 30.18 22.9904C29.7153 23.0307 29.248 22.9547 28.82 22.7694C28.6775 23.3919 28.465 23.9806 28.1825 24.5356ZM17.75 13.6231C17.2527 13.6231 16.7758 13.8207 16.4242 14.1723C16.0725 14.5239 15.875 15.0008 15.875 15.4981V21.125C15.875 22.6168 16.4676 24.0476 17.5225 25.1025C18.5774 26.1574 20.0082 26.75 21.5 26.75C22.9918 26.75 24.4226 26.1574 25.4775 25.1025C26.5324 24.0476 27.125 22.6168 27.125 21.125V15.5C27.125 15.0027 26.9275 14.5258 26.5758 14.1742C26.2242 13.8225 25.7473 13.625 25.25 13.625L17.75 13.6231ZM17.75 15.4981H25.25V21.125C25.25 22.1196 24.8549 23.0734 24.1516 23.7767C23.4484 24.4799 22.4946 24.875 21.5 24.875C20.5054 24.875 19.5516 24.4799 18.8483 23.7767C18.1451 23.0734 17.75 22.1196 17.75 21.125V15.4981Z" fill="#E7F6FF"/>
<path d="M5.42933 35.6818H6.71911L8.44638 39.8977H8.51456L10.2418 35.6818H11.5316V41.5H10.5202V37.5028H10.4663L8.85831 41.483H8.10263L6.49467 37.4943H6.4407V41.5H5.42933V35.6818ZM14.5657 41.5852C14.1282 41.5852 13.7504 41.4943 13.4322 41.3125C13.1159 41.1288 12.8725 40.8693 12.7021 40.5341C12.5316 40.197 12.4464 39.8002 12.4464 39.3438C12.4464 38.8949 12.5316 38.5009 12.7021 38.1619C12.8744 37.821 13.1149 37.5559 13.4237 37.3665C13.7324 37.1752 14.0951 37.0795 14.5117 37.0795C14.7807 37.0795 15.0344 37.1231 15.2731 37.2102C15.5136 37.2955 15.7257 37.428 15.9094 37.608C16.0951 37.7879 16.2409 38.017 16.3469 38.2955C16.453 38.572 16.506 38.9015 16.506 39.2841V39.5994H12.9293V38.9062H15.5202C15.5183 38.7093 15.4757 38.5341 15.3924 38.3807C15.3091 38.2254 15.1926 38.1032 15.043 38.0142C14.8952 37.9252 14.7229 37.8807 14.5259 37.8807C14.3157 37.8807 14.131 37.9318 13.9719 38.0341C13.8129 38.1345 13.6888 38.267 13.5998 38.4318C13.5127 38.5947 13.4682 38.7737 13.4663 38.9688V39.5739C13.4663 39.8277 13.5127 40.0455 13.6055 40.2273C13.6983 40.4072 13.828 40.5455 13.9947 40.642C14.1613 40.7367 14.3564 40.7841 14.5799 40.7841C14.7295 40.7841 14.8649 40.7633 14.9862 40.7216C15.1074 40.678 15.2125 40.6146 15.3015 40.5312C15.3905 40.4479 15.4577 40.3447 15.5032 40.2216L16.4634 40.3295C16.4028 40.5833 16.2873 40.8049 16.1168 40.9943C15.9483 41.1818 15.7324 41.3277 15.4691 41.4318C15.2058 41.5341 14.9047 41.5852 14.5657 41.5852ZM18.4045 38.9432V41.5H17.3761V37.1364H18.359V37.8778H18.4102C18.5105 37.6335 18.6706 37.4394 18.8903 37.2955C19.1119 37.1515 19.3855 37.0795 19.7113 37.0795C20.0124 37.0795 20.2747 37.1439 20.4982 37.2727C20.7236 37.4015 20.8978 37.5881 21.021 37.8324C21.146 38.0767 21.2075 38.3731 21.2056 38.7216V41.5H20.1772V38.8807C20.1772 38.589 20.1014 38.3608 19.9499 38.196C19.8003 38.0312 19.5929 37.9489 19.3278 37.9489C19.1478 37.9489 18.9878 37.9886 18.8477 38.0682C18.7094 38.1458 18.6005 38.2585 18.521 38.4062C18.4433 38.554 18.4045 38.733 18.4045 38.9432ZM24.43 37.1364V37.9318H21.9215V37.1364H24.43ZM22.5408 36.0909H23.5692V40.1875C23.5692 40.3258 23.5901 40.4318 23.6317 40.5057C23.6753 40.5777 23.7321 40.6269 23.8022 40.6534C23.8723 40.6799 23.9499 40.6932 24.0352 40.6932C24.0996 40.6932 24.1583 40.6884 24.2113 40.679C24.2662 40.6695 24.3079 40.661 24.3363 40.6534L24.5096 41.4574C24.4547 41.4763 24.3761 41.4972 24.2738 41.5199C24.1734 41.5426 24.0503 41.5559 23.9045 41.5597C23.6469 41.5672 23.4149 41.5284 23.2085 41.4432C23.002 41.3561 22.8382 41.2216 22.717 41.0398C22.5977 40.858 22.5389 40.6307 22.5408 40.358V36.0909ZM27.1467 41.5852C26.7205 41.5852 26.3512 41.4915 26.0387 41.304C25.7262 41.1165 25.4838 40.8542 25.3114 40.517C25.141 40.1799 25.0558 39.786 25.0558 39.3352C25.0558 38.8845 25.141 38.4896 25.3114 38.1506C25.4838 37.8116 25.7262 37.5483 26.0387 37.3608C26.3512 37.1733 26.7205 37.0795 27.1467 37.0795C27.5728 37.0795 27.9421 37.1733 28.2546 37.3608C28.5671 37.5483 28.8086 37.8116 28.979 38.1506C29.1514 38.4896 29.2376 38.8845 29.2376 39.3352C29.2376 39.786 29.1514 40.1799 28.979 40.517C28.8086 40.8542 28.5671 41.1165 28.2546 41.304C27.9421 41.4915 27.5728 41.5852 27.1467 41.5852ZM27.1523 40.7614C27.3834 40.7614 27.5766 40.6979 27.7319 40.571C27.8872 40.4422 28.0027 40.2699 28.0785 40.054C28.1561 39.8381 28.195 39.5975 28.195 39.3324C28.195 39.0653 28.1561 38.8239 28.0785 38.608C28.0027 38.3902 27.8872 38.2169 27.7319 38.0881C27.5766 37.9593 27.3834 37.8949 27.1523 37.8949C26.9156 37.8949 26.7186 37.9593 26.5614 38.0881C26.4061 38.2169 26.2897 38.3902 26.212 38.608C26.1362 38.8239 26.0984 39.0653 26.0984 39.3324C26.0984 39.5975 26.1362 39.8381 26.212 40.054C26.2897 40.2699 26.4061 40.4422 26.5614 40.571C26.7186 40.6979 26.9156 40.7614 27.1523 40.7614ZM30.1104 41.5V37.1364H31.1076V37.8636H31.1531C31.2326 37.6117 31.369 37.4176 31.5621 37.2812C31.7572 37.143 31.9798 37.0739 32.2298 37.0739C32.2866 37.0739 32.35 37.0767 32.4201 37.0824C32.4921 37.0862 32.5517 37.0928 32.5991 37.1023V38.0483C32.5555 38.0331 32.4864 38.0199 32.3917 38.0085C32.2989 37.9953 32.2089 37.9886 32.1218 37.9886C31.9343 37.9886 31.7657 38.0294 31.6161 38.1108C31.4684 38.1903 31.3519 38.3011 31.2667 38.4432C31.1815 38.5852 31.1388 38.7491 31.1388 38.9347V41.5H30.1104ZM36.7312 38.2898L35.7937 38.392C35.7672 38.2973 35.7208 38.2083 35.6545 38.125C35.5901 38.0417 35.503 37.9744 35.3931 37.9233C35.2833 37.8722 35.1488 37.8466 34.9897 37.8466C34.7757 37.8466 34.5958 37.893 34.4499 37.9858C34.306 38.0786 34.235 38.1989 34.2369 38.3466C34.235 38.4735 34.2814 38.5767 34.3761 38.6562C34.4727 38.7358 34.6317 38.8011 34.8533 38.8523L35.5977 39.0114C36.0105 39.1004 36.3174 39.2415 36.5181 39.4347C36.7208 39.6278 36.823 39.8807 36.8249 40.1932C36.823 40.4678 36.7425 40.7102 36.5835 40.9205C36.4263 41.1288 36.2075 41.2917 35.9272 41.4091C35.6469 41.5265 35.3249 41.5852 34.9613 41.5852C34.4272 41.5852 33.9973 41.4735 33.6715 41.25C33.3458 41.0246 33.1516 40.7112 33.0891 40.3097L34.092 40.2131C34.1374 40.41 34.234 40.5587 34.3817 40.6591C34.5295 40.7595 34.7217 40.8097 34.9585 40.8097C35.2028 40.8097 35.3988 40.7595 35.5465 40.6591C35.6961 40.5587 35.771 40.4347 35.771 40.2869C35.771 40.1619 35.7227 40.0587 35.6261 39.9773C35.5314 39.8958 35.3836 39.8333 35.1829 39.7898L34.4386 39.6335C34.02 39.5464 33.7103 39.3996 33.5096 39.1932C33.3088 38.9848 33.2094 38.7216 33.2113 38.4034C33.2094 38.1345 33.2823 37.9015 33.43 37.7045C33.5797 37.5057 33.7871 37.3523 34.0522 37.2443C34.3192 37.1345 34.627 37.0795 34.9755 37.0795C35.4869 37.0795 35.8893 37.1884 36.1829 37.4062C36.4783 37.6241 36.6611 37.9186 36.7312 38.2898Z" fill="#E7F6FF"/>
</svg>
