<svg width="34" height="39" viewBox="0 0 34 39" fill="none" xmlns="http://www.w3.org/2000/svg">
<path d="M22.9062 13.5C23.5776 13.5 24.2214 13.7667 24.6961 14.2414C25.1708 14.7161 25.4375 15.3599 25.4375 16.0312V16.875C25.4375 20.2011 22.2987 23.625 17 23.625C11.7012 23.625 8.5625 20.2011 8.5625 16.875V16.0312C8.5625 15.3599 8.82918 14.7161 9.30389 14.2414C9.77859 13.7667 10.4224 13.5 11.0938 13.5H22.9062ZM22.9062 15.1875H11.0938C10.87 15.1875 10.6554 15.2764 10.4971 15.4346C10.3389 15.5929 10.25 15.8075 10.25 16.0312V16.875C10.25 19.3016 12.6665 21.9375 17 21.9375C21.3335 21.9375 23.75 19.3016 23.75 16.875V16.0312C23.75 15.8075 23.6611 15.5929 23.5029 15.4346C23.3446 15.2764 23.13 15.1875 22.9062 15.1875ZM17 2.53125C18.2308 2.53125 19.4111 3.02017 20.2814 3.89046C21.1517 4.76074 21.6406 5.9411 21.6406 7.17188C21.6406 8.40265 21.1517 9.58301 20.2814 10.4533C19.4111 11.3236 18.2308 11.8125 17 11.8125C15.7692 11.8125 14.5889 11.3236 13.7186 10.4533C12.8483 9.58301 12.3594 8.40265 12.3594 7.17188C12.3594 5.9411 12.8483 4.76074 13.7186 3.89046C14.5889 3.02017 15.7692 2.53125 17 2.53125ZM17 4.21875C16.2168 4.21875 15.4656 4.52988 14.9118 5.0837C14.358 5.63752 14.0469 6.38866 14.0469 7.17188C14.0469 7.95509 14.358 8.70623 14.9118 9.26005C15.4656 9.81387 16.2168 10.125 17 10.125C17.7832 10.125 18.5344 9.81387 19.0882 9.26005C19.642 8.70623 19.9531 7.95509 19.9531 7.17188C19.9531 6.38866 19.642 5.63752 19.0882 5.0837C18.5344 4.52988 17.7832 4.21875 17 4.21875Z" fill="#E7F6FF"/>
<path d="M5.10511 38V32.1818H7.28693C7.7339 32.1818 8.1089 32.2652 8.41193 32.4318C8.71686 32.5985 8.94697 32.8277 9.10227 33.1193C9.25947 33.4091 9.33807 33.7386 9.33807 34.108C9.33807 34.4811 9.25947 34.8125 9.10227 35.1023C8.94508 35.392 8.71307 35.6203 8.40625 35.7869C8.09943 35.9517 7.72159 36.0341 7.27273 36.0341H5.8267V35.1676H7.13068C7.39205 35.1676 7.60606 35.1222 7.77273 35.0312C7.93939 34.9403 8.0625 34.8153 8.14205 34.6562C8.22348 34.4972 8.2642 34.3144 8.2642 34.108C8.2642 33.9015 8.22348 33.7197 8.14205 33.5625C8.0625 33.4053 7.93845 33.2831 7.76989 33.196C7.60322 33.107 7.38826 33.0625 7.125 33.0625H6.15909V38H5.10511ZM10.2081 38V33.6364H11.2053V34.3636H11.2507C11.3303 34.1117 11.4666 33.9176 11.6598 33.7812C11.8549 33.643 12.0774 33.5739 12.3274 33.5739C12.3842 33.5739 12.4477 33.5767 12.5178 33.5824C12.5897 33.5862 12.6494 33.5928 12.6967 33.6023V34.5483C12.6532 34.5331 12.584 34.5199 12.4893 34.5085C12.3965 34.4953 12.3066 34.4886 12.2195 34.4886C12.032 34.4886 11.8634 34.5294 11.7138 34.6108C11.5661 34.6903 11.4496 34.8011 11.3643 34.9432C11.2791 35.0852 11.2365 35.2491 11.2365 35.4347V38H10.2081ZM15.1037 38.0852C14.6776 38.0852 14.3082 37.9915 13.9957 37.804C13.6832 37.6165 13.4408 37.3542 13.2685 37.017C13.098 36.6799 13.0128 36.286 13.0128 35.8352C13.0128 35.3845 13.098 34.9896 13.2685 34.6506C13.4408 34.3116 13.6832 34.0483 13.9957 33.8608C14.3082 33.6733 14.6776 33.5795 15.1037 33.5795C15.5298 33.5795 15.8991 33.6733 16.2116 33.8608C16.5241 34.0483 16.7656 34.3116 16.9361 34.6506C17.1084 34.9896 17.1946 35.3845 17.1946 35.8352C17.1946 36.286 17.1084 36.6799 16.9361 37.017C16.7656 37.3542 16.5241 37.6165 16.2116 37.804C15.8991 37.9915 15.5298 38.0852 15.1037 38.0852ZM15.1094 37.2614C15.3404 37.2614 15.5336 37.1979 15.6889 37.071C15.8442 36.9422 15.9598 36.7699 16.0355 36.554C16.1132 36.3381 16.152 36.0975 16.152 35.8324C16.152 35.5653 16.1132 35.3239 16.0355 35.108C15.9598 34.8902 15.8442 34.7169 15.6889 34.5881C15.5336 34.4593 15.3404 34.3949 15.1094 34.3949C14.8726 34.3949 14.6757 34.4593 14.5185 34.5881C14.3632 34.7169 14.2467 34.8902 14.169 35.108C14.0933 35.3239 14.0554 35.5653 14.0554 35.8324C14.0554 36.0975 14.0933 36.3381 14.169 36.554C14.2467 36.7699 14.3632 36.9422 14.5185 37.071C14.6757 37.1979 14.8726 37.2614 15.1094 37.2614ZM20.2777 33.6364V34.4318H17.6982V33.6364H20.2777ZM18.343 38V33.2244C18.343 32.9309 18.4036 32.6866 18.5249 32.4915C18.648 32.2964 18.8127 32.1506 19.0192 32.054C19.2256 31.9574 19.4548 31.9091 19.7067 31.9091C19.8847 31.9091 20.0429 31.9233 20.1811 31.9517C20.3194 31.9801 20.4216 32.0057 20.4879 32.0284L20.2834 32.8239C20.2398 32.8106 20.1849 32.7973 20.1186 32.7841C20.0523 32.7689 19.9785 32.7614 19.897 32.7614C19.7057 32.7614 19.5703 32.8078 19.4908 32.9006C19.4131 32.9915 19.3743 33.1222 19.3743 33.2926V38H18.343ZM21.0831 38V33.6364H22.1115V38H21.0831ZM21.6001 33.017C21.4373 33.017 21.2971 32.9631 21.1797 32.8551C21.0623 32.7453 21.0036 32.6136 21.0036 32.4602C21.0036 32.3049 21.0623 32.1733 21.1797 32.0653C21.2971 31.9555 21.4373 31.9006 21.6001 31.9006C21.7649 31.9006 21.9051 31.9555 22.0206 32.0653C22.138 32.1733 22.1967 32.3049 22.1967 32.4602C22.1967 32.6136 22.138 32.7453 22.0206 32.8551C21.9051 32.9631 21.7649 33.017 21.6001 33.017ZM24.1974 32.1818V38H23.169V32.1818H24.1974ZM27.1868 38.0852C26.7493 38.0852 26.3714 37.9943 26.0533 37.8125C25.737 37.6288 25.4936 37.3693 25.3232 37.0341C25.1527 36.697 25.0675 36.3002 25.0675 35.8438C25.0675 35.3949 25.1527 35.0009 25.3232 34.6619C25.4955 34.321 25.736 34.0559 26.0447 33.8665C26.3535 33.6752 26.7161 33.5795 27.1328 33.5795C27.4018 33.5795 27.6555 33.6231 27.8942 33.7102C28.1347 33.7955 28.3468 33.928 28.5305 34.108C28.7161 34.2879 28.862 34.517 28.968 34.7955C29.0741 35.072 29.1271 35.4015 29.1271 35.7841V36.0994H25.5504V35.4062H28.1413C28.1394 35.2093 28.0968 35.0341 28.0135 34.8807C27.9302 34.7254 27.8137 34.6032 27.6641 34.5142C27.5163 34.4252 27.344 34.3807 27.147 34.3807C26.9368 34.3807 26.7521 34.4318 26.593 34.5341C26.4339 34.6345 26.3099 34.767 26.2209 34.9318C26.1338 35.0947 26.0893 35.2737 26.0874 35.4688V36.0739C26.0874 36.3277 26.1338 36.5455 26.2266 36.7273C26.3194 36.9072 26.4491 37.0455 26.6158 37.142C26.7824 37.2367 26.9775 37.2841 27.201 37.2841C27.3506 37.2841 27.486 37.2633 27.6072 37.2216C27.7285 37.178 27.8336 37.1146 27.9226 37.0312C28.0116 36.9479 28.0788 36.8447 28.1243 36.7216L29.0845 36.8295C29.0239 37.0833 28.9084 37.3049 28.7379 37.4943C28.5694 37.6818 28.3535 37.8277 28.0902 37.9318C27.8269 38.0341 27.5258 38.0852 27.1868 38.0852Z" fill="#E7F6FF"/>
</svg>
